<!-- google.svg -->
<svg xmlns="http://www.w3.org/2000/svg" width="22" height="22" viewBox="0 0 48 48">
  <g>
    <path fill="#4285F4" d="M44.5 20H24v8.5h11.7C34.9 33.9 30.2 37 24 37c-7.2 0-13-5.8-13-13s5.8-13 13-13c3.1 0 5.8 1.1 8 2.9l6-5.8C34.6 4.2 29.7 2 24 2 12.5 2 3 11.5 3 23s9.5 21 21 21c10.6 0 20-7.7 20-21 0-1.4-.1-2.4-.3-3.5z"/>
    <path fill="#34A853" d="M6.7 14.6l7 5.1C15.8 17.3 19.6 14 24 14c3.1 0 5.8 1.1 8 2.9l6-5.8C34.6 4.2 29.7 2 24 2 15.2 2 7.8 8.7 6.7 14.6z"/>
    <path fill="#FBBC05" d="M24 44c5.4 0 10.3-1.7 14.1-4.6l-6.5-5c-2.2 1.5-5 2.5-7.6 2.5-5.8 0-10.7-3.9-12.4-9.3l-6.8 5.2C8 39.3 15.2 44 24 44z"/>
    <path fill="#EA4335" d="M44.5 20H24v8.5h11.7c-1 3.1-3.8 6.7-11.7 6.7-7.2 0-13-5.8-13-13s5.8-13 13-13c3.1 0 5.8 1.1 8 2.9l6-5.8C34.6 4.2 29.7 2 24 2c-11.5 0-21 9.5-21 21s9.5 21 21 21c10.6 0 20-7.7 20-21 0-1.4-.1-2.4-.3-3.5z"/>
  </g>
</svg>
